<svg width="309" height="342" viewBox="0 0 309 342" fill="none" xmlns="http://www.w3.org/2000/svg">
<line x1="135.5" y1="1" x2="135.5" y2="321" stroke="#C5A364" stroke-width="32"/>
<path d="M53.3431 339.657C56.4673 342.781 61.5327 342.781 64.6569 339.657L115.569 288.745C118.693 285.621 118.693 280.556 115.569 277.431C112.444 274.307 107.379 274.307 104.255 277.431L59 322.686L13.7452 277.431C10.621 274.307 5.55565 274.307 2.43146 277.431C-0.692738 280.556 -0.692738 285.621 2.43146 288.745L53.3431 339.657ZM67 334L67 14H51L51 334H67Z" fill="#E5E5E5"/>
<g filter="url(#filter0_d_15_10)">
<circle cx="223" cy="91" r="12" fill="#F8F7EB"/>
</g>
<path d="M154.43 167.367C151.012 170.167 150.512 175.208 153.312 178.625L198.944 234.318C201.744 237.736 206.785 238.236 210.202 235.436C213.62 232.636 214.121 227.595 211.32 224.178L170.758 174.673L220.263 134.111C223.681 131.311 224.181 126.27 221.381 122.853C218.581 119.435 213.54 118.935 210.123 121.735L154.43 167.367ZM146 9.0551C146.85 17.0099 146.848 17.0101 146.846 17.0102C146.847 17.0102 146.846 17.0102 146.847 17.0101C146.848 17.01 146.852 17.0096 146.858 17.009C146.87 17.0077 146.892 17.0055 146.922 17.0024C146.983 16.9962 147.08 16.9864 147.213 16.9737C147.477 16.9481 147.882 16.9103 148.419 16.8643C149.491 16.7723 151.087 16.6475 153.131 16.5213C157.222 16.2689 163.095 16.0118 170.154 16.0004C184.316 15.9775 203.032 16.9448 221.615 20.8238C240.296 24.7231 258.156 31.4256 271.215 42.3923C283.961 53.0968 292.5 68.1363 292.5 90.0551H308.5C308.5 63.2239 297.726 43.7633 281.504 30.1398C265.594 16.7784 244.829 9.32459 224.885 5.16138C204.843 0.977857 184.934 -0.0235434 170.128 0.000416279C162.701 0.0124335 156.504 0.282727 152.146 0.551734C149.965 0.686306 148.242 0.820753 147.052 0.922855C146.456 0.973914 145.994 1.01691 145.674 1.04782C145.514 1.06328 145.389 1.07571 145.302 1.08463C145.258 1.08909 145.223 1.09267 145.198 1.09531C145.186 1.09663 145.175 1.09771 145.167 1.09855C145.163 1.09897 145.159 1.09942 145.157 1.09963C145.153 1.10001 145.15 1.10033 146 9.0551ZM292.5 90.0551C292.5 112.241 284.586 127.529 272.996 138.4C261.157 149.504 244.996 156.432 228.086 160.6C211.245 164.751 194.267 166.015 181.404 166.22C174.996 166.322 169.666 166.161 165.957 165.976C164.104 165.884 162.66 165.785 161.692 165.712C161.208 165.675 160.843 165.644 160.607 165.623C160.489 165.613 160.402 165.605 160.349 165.6C160.323 165.597 160.305 165.596 160.295 165.595C160.29 165.594 160.287 165.594 160.286 165.594C160.286 165.594 160.287 165.594 160.287 165.594C160.288 165.594 160.29 165.594 159.5 173.555C158.71 181.516 158.713 181.516 158.717 181.517C158.718 181.517 158.723 181.517 158.727 181.518C158.735 181.518 158.745 181.519 158.757 181.521C158.781 181.523 158.814 181.526 158.855 181.53C158.937 181.538 159.054 181.548 159.202 181.561C159.499 181.588 159.927 181.624 160.475 181.665C161.573 181.749 163.157 181.856 165.16 181.956C169.162 182.156 174.848 182.327 181.659 182.218C195.233 182.002 213.505 180.672 231.914 176.135C250.254 171.615 269.343 163.763 283.942 150.07C298.789 136.144 308.5 116.619 308.5 90.0551H292.5Z" fill="#C5A364"/>
<defs>
<filter id="filter0_d_15_10" x="195" y="63" width="56" height="56" filterUnits="userSpaceOnUse" color-interpolation-filters="sRGB">
<feFlood flood-opacity="0" result="BackgroundImageFix"/>
<feColorMatrix in="SourceAlpha" type="matrix" values="0 0 0 0 0 0 0 0 0 0 0 0 0 0 0 0 0 0 127 0" result="hardAlpha"/>
<feMorphology radius="8" operator="dilate" in="SourceAlpha" result="effect1_dropShadow_15_10"/>
<feOffset/>
<feGaussianBlur stdDeviation="4"/>
<feComposite in2="hardAlpha" operator="out"/>
<feColorMatrix type="matrix" values="0 0 0 0 0 0 0 0 0 0 0 0 0 0 0 0 0 0 0.04 0"/>
<feBlend mode="normal" in2="BackgroundImageFix" result="effect1_dropShadow_15_10"/>
<feBlend mode="normal" in="SourceGraphic" in2="effect1_dropShadow_15_10" result="shape"/>
</filter>
</defs>
</svg>
